<svg xmlns="http://www.w3.org/2000/svg" viewBox="0 0 1024 1536" preserveAspectRatio="xMidYMid slice">
  <defs>
    <filter id="grain" x="-20%" y="-20%" width="140%" height="140%">
      <feTurbulence type="fractalNoise" baseFrequency="0.015 0.028" numOctaves="5" seed="14" result="n"/>
      <feColorMatrix in="n" type="matrix" values="0 0 0 0 0.02  0 0 0 0 0.18  0 0 0 0 0.26  0 0 0 1 0" result="blue"/>
      <feDisplacementMap in="SourceGraphic" in2="n" scale="52" xChannelSelector="R" yChannelSelector="G"/>
      <feBlend in="blue" mode="screen"/>
    </filter>
    <radialGradient id="glow" cx="48%" cy="46%" r="72%">
      <stop offset="0" stop-color="#12394a"/>
      <stop offset="0.46" stop-color="#061b25"/>
      <stop offset="1" stop-color="#02080e"/>
    </radialGradient>
    <pattern id="speckle" width="38" height="38" patternUnits="userSpaceOnUse">
      <circle cx="3" cy="9" r="1.1" fill="#d7edf0" opacity="0.78"/>
      <circle cx="17" cy="21" r="0.8" fill="#c2dde1" opacity="0.62"/>
      <circle cx="29" cy="6" r="1.4" fill="#e6f4f1" opacity="0.48"/>
      <circle cx="34" cy="31" r="0.7" fill="#a8d7de" opacity="0.55"/>
    </pattern>
  </defs>
  <rect width="1024" height="1536" fill="url(#glow)"/>
  <g filter="url(#grain)" opacity="0.9">
    <path d="M-80 270 C180 150 370 210 555 310 C735 407 860 300 1110 205" fill="none" stroke="#1b6a7d" stroke-width="42" opacity="0.34"/>
    <path d="M-40 660 C170 520 375 570 540 735 C700 895 860 760 1090 610" fill="none" stroke="#2e91a5" stroke-width="58" opacity="0.26"/>
    <path d="M95 1600 C205 1260 420 1180 585 1010 C755 835 785 690 1110 480" fill="none" stroke="#7fd2df" stroke-width="28" opacity="0.32"/>
    <path d="M-110 1140 C185 1040 360 1038 520 1160 C700 1298 790 1315 1120 1180" fill="none" stroke="#9bdde4" stroke-width="22" opacity="0.22"/>
    <path d="M210 -80 C245 265 365 430 495 595 C660 805 610 990 720 1600" fill="none" stroke="#d4edf0" stroke-width="14" opacity="0.27"/>
  </g>
  <rect width="1024" height="1536" fill="url(#speckle)" opacity="0.42"/>
  <rect width="1024" height="1536" fill="#02080d" opacity="0.2"/>
</svg>
